<mxfile host="app.diagrams.net" modified="2024-02-06T14:17:20.402Z" agent="Mozilla/5.0 (Windows NT 10.0; Win64; x64) AppleWebKit/537.36 (KHTML, like Gecko) Chrome/121.0.0.0 Safari/537.36" version="22.1.18" etag="HYFyqW7eprlxEC6u5nLv" type="github">
  <diagram name="PÃ¡gina-1" id="ZHmSD_bIdqubOtkI9rEM">
    <mxGraphModel>
      <root>
        <mxCell id="0" />
        <mxCell id="1" parent="0" />
      </root>
    </mxGraphModel>
  </diagram>
</mxfile>
